<svg id="Layer_3" data-name="Layer 3" xmlns="http://www.w3.org/2000/svg" viewBox="0 0 708.05 222.81"><defs><style>.cls-1{fill:#fff;}</style></defs><title>banner-logo</title><polygon class="cls-1" points="0 222.81 241.97 10.39 339.41 80.22 204.62 204.62 195.2 208.19 275.75 107.18 161.1 178.96 247.17 87.04 203.65 110.75 220.53 40.92 41.57 194.88 0 222.81"/><polygon class="cls-1" points="220.53 208.52 443.99 0 559.29 96.46 431 212.09 489.46 125.37 353.37 197.47 433.27 89.97 439.12 75.03 421.58 87.04 427.75 27.61 238.4 204.29 220.53 208.52"/><polygon class="cls-1" points="449.51 219.88 575.86 101.01 708.05 216.31 517.72 219.88 583.65 183.83 550.2 194.23 584.63 143.23 561.89 156.55 575.86 107.83 466.4 214.04 449.51 219.88"/></svg>