<svg id="Layer_3" data-name="Layer 3" xmlns="http://www.w3.org/2000/svg" viewBox="0 0 1109.35 462.67"><defs><style>.cls-1{fill:#fff;}</style></defs><title>hero-logo</title><polygon class="cls-1" points="13.52 343 386.02 16 536.02 123.5 328.52 315 314.02 320.5 438.02 165 261.52 275.5 394.02 134 327.02 170.5 353.02 63 77.52 300 13.52 343"/><polygon class="cls-1" points="353.02 321 697.02 0 874.52 148.5 677.02 326.5 767.02 193 557.52 304 680.52 138.5 689.52 115.5 662.52 134 672.02 42.5 380.52 314.5 353.02 321"/><polygon class="cls-1" points="705.52 338.5 900.02 155.5 1103.52 333 810.52 338.5 912.02 283 860.52 299 913.52 220.5 878.52 241 900.02 166 731.52 329.5 705.52 338.5"/><path class="cls-1" d="M69.55,433.08q-1,13.77-10.17,21.68t-24.17,7.91q-16.41,0-25.81-11T0,421.3v-5.21a51.13,51.13,0,0,1,4.34-21.68A32.49,32.49,0,0,1,16.73,380a34.71,34.71,0,0,1,18.72-5q14.77,0,23.79,7.91t10.43,22.21H52.09q-.65-8.26-4.6-12t-12-3.72q-8.79,0-13.15,6.3t-4.48,19.54v6.45q0,13.83,4.19,20.21t13.21,6.39q8.14,0,12.16-3.72T52,433.08Z"/><path class="cls-1" d="M122.78,376.19l21.91,61.88,21.8-61.87h23.09V461.5H171.94V438.18l1.76-40.25-23,63.57H138.6l-23-63.52,1.76,40.2V461.5H99.81V376.19Z"/><path class="cls-1" d="M241.23,431.44V461.5H223.65V376.19h33.28a38.51,38.51,0,0,1,16.9,3.52,25.92,25.92,0,0,1,11.22,10A27.86,27.86,0,0,1,289,404.43q0,12.54-8.58,19.78t-23.76,7.24Zm0-14.24h15.7q7,0,10.63-3.28t3.66-9.37a14.07,14.07,0,0,0-3.69-10.14q-3.69-3.87-10.2-4H241.23Z"/><path class="cls-1" d="M417.54,423.82h-35.8V461.5H370.49V376.19h52.85v9.2h-41.6v29.24h35.8Z"/><path class="cls-1" d="M467.6,461.5H456.35V376.19H467.6Z"/><path class="cls-1" d="M572.46,461.5H561.15L518.2,395.76V461.5H506.89V376.19H518.2l43.07,66v-66h11.19Z"/><path class="cls-1" d="M658.27,439.18H622.52l-8,22.32h-11.6l32.58-85.31h9.84L678,461.5H666.41ZM625.92,430h29l-14.53-39.9Z"/><path class="cls-1" d="M773.72,461.5H762.42l-42.95-65.74V461.5H708.16V376.19h11.31l43.07,66v-66h11.19Z"/><path class="cls-1" d="M875.18,434.43q-1.58,13.54-10,20.89t-22.35,7.35q-15.12,0-24.23-10.84t-9.11-29v-8.2a48.59,48.59,0,0,1,4.25-20.92,31.74,31.74,0,0,1,12-13.86,33.52,33.52,0,0,1,18-4.83q13.59,0,21.8,7.59t9.55,21H863.87q-1.46-10.23-6.36-14.81t-13.68-4.58q-10.78,0-16.9,8t-6.12,22.69v8.27q0,13.9,5.8,22.11t16.23,8.21q9.37,0,14.38-4.25t6.65-14.79Z"/><path class="cls-1" d="M921.32,461.5H910.07V376.19h11.25Z"/><path class="cls-1" d="M1007.72,439.18H972l-8,22.32h-11.6l32.58-85.31h9.84l32.64,85.31h-11.54ZM975.37,430h29l-14.53-39.9Z"/><path class="cls-1" d="M1068.92,452.3h40.43v9.2h-51.74V376.19h11.31Z"/></svg>