<svg id="Layer_1" data-name="Layer 1" xmlns="http://www.w3.org/2000/svg" viewBox="0 0 327.32 103"><defs><style>.cls-1{fill:#fff;}</style></defs><title>nav-logo</title><polygon class="cls-1" points="0 103 111.86 4.8 156.9 37.09 94.59 94.59 90.24 96.24 127.47 49.55 74.47 82.73 114.26 40.24 94.14 51.2 101.95 18.92 19.22 90.09 0 103"/><polygon class="cls-1" points="101.95 96.39 205.25 0 258.55 44.59 199.24 98.05 226.27 57.96 163.36 91.29 200.29 41.59 203 34.68 194.89 40.24 197.74 12.76 110.21 94.44 101.95 96.39"/><polygon class="cls-1" points="207.8 101.65 266.21 46.7 327.32 100 239.33 101.65 269.81 84.98 254.35 89.79 270.26 66.21 259.75 72.37 266.21 49.85 215.61 98.95 207.8 101.65"/></svg>